<svg width="32" height="32" viewBox="0 0 32 32" fill="none" xmlns="http://www.w3.org/2000/svg">
<path d="M27.8667 2.66669H4.13332C3.74434 2.66669 3.37129 2.82121 3.09623 3.09626C2.82118 3.37132 2.66666 3.74437 2.66666 4.13335V27.8667C2.66666 28.0593 2.70459 28.25 2.7783 28.428C2.85201 28.6059 2.96004 28.7676 3.09623 28.9038C3.23243 29.04 3.39411 29.148 3.57205 29.2217C3.75 29.2954 3.94072 29.3334 4.13332 29.3334H16.9067V19H13.44V15H16.9067V12C16.8348 11.2957 16.918 10.5842 17.1503 9.9154C17.3826 9.24662 17.7583 8.63675 18.2513 8.12857C18.7442 7.62039 19.3424 7.22621 20.0038 6.97367C20.6652 6.72113 21.3738 6.61636 22.08 6.66669C23.1178 6.6603 24.155 6.71372 25.1867 6.82669V10.4267H23.0667C21.3867 10.4267 21.0667 11.2267 21.0667 12.3867V14.96H25.0667L24.5467 18.96H21.0667V29.3334H27.8667C28.0593 29.3334 28.25 29.2954 28.4279 29.2217C28.6059 29.148 28.7676 29.04 28.9037 28.9038C29.0399 28.7676 29.148 28.6059 29.2217 28.428C29.2954 28.25 29.3333 28.0593 29.3333 27.8667V4.13335C29.3333 3.94075 29.2954 3.75003 29.2217 3.57208C29.148 3.39414 29.0399 3.23246 28.9037 3.09626C28.7676 2.96007 28.6059 2.85204 28.4279 2.77833C28.25 2.70462 28.0593 2.66669 27.8667 2.66669V2.66669Z" fill="#0F2137"/>
</svg>
