<svg width="32" height="32" viewBox="0 0 32 32" fill="none" xmlns="http://www.w3.org/2000/svg">
<path d="M16 12.6934C15.346 12.6934 14.7067 12.8873 14.1629 13.2506C13.6192 13.614 13.1953 14.1304 12.9451 14.7346C12.6948 15.3388 12.6293 16.0037 12.7569 16.6451C12.8845 17.2865 13.1994 17.8757 13.6619 18.3382C14.1243 18.8006 14.7135 19.1156 15.3549 19.2432C15.9964 19.3707 16.6612 19.3053 17.2654 19.055C17.8696 18.8047 18.3861 18.3809 18.7494 17.8371C19.1128 17.2933 19.3067 16.654 19.3067 16C19.3067 15.5658 19.2212 15.1358 19.055 14.7346C18.8888 14.3334 18.6452 13.9689 18.3382 13.6619C18.0311 13.3548 17.6666 13.1112 17.2654 12.9451C16.8642 12.7789 16.4343 12.6934 16 12.6934V12.6934ZM29.24 9.42669C29.233 8.39703 29.0434 7.37678 28.68 6.41335C28.4124 5.70837 27.9983 5.06815 27.4651 4.53493C26.9319 4.00172 26.2917 3.58764 25.5867 3.32002C24.6233 2.95664 23.603 2.76703 22.5734 2.76002C20.8534 2.66669 20.3467 2.66669 16 2.66669C11.6534 2.66669 11.1467 2.66669 9.42669 2.76002C8.39703 2.76703 7.37678 2.95664 6.41335 3.32002C5.70837 3.58764 5.06815 4.00172 4.53493 4.53493C4.00172 5.06815 3.58764 5.70837 3.32002 6.41335C2.95664 7.37678 2.76703 8.39703 2.76002 9.42669C2.66669 11.1467 2.66669 11.6534 2.66669 16C2.66669 20.3467 2.66669 20.8534 2.76002 22.5734C2.77437 23.6066 2.96372 24.63 3.32002 25.6C3.58646 26.3018 4.00019 26.9383 4.53335 27.4667C5.06428 28.0031 5.70587 28.4172 6.41335 28.68C7.37678 29.0434 8.39703 29.233 9.42669 29.24C11.1467 29.3334 11.6534 29.3334 16 29.3334C20.3467 29.3334 20.8534 29.3334 22.5734 29.24C23.603 29.233 24.6233 29.0434 25.5867 28.68C26.2942 28.4172 26.9358 28.0031 27.4667 27.4667C27.9999 26.9383 28.4136 26.3018 28.68 25.6C29.0431 24.6319 29.2326 23.6073 29.24 22.5734C29.3334 20.8534 29.3334 20.3467 29.3334 16C29.3334 11.6534 29.3334 11.1467 29.24 9.42669V9.42669ZM25.8534 20.0934C25.8106 20.9162 25.635 21.7266 25.3334 22.4934C25.0745 23.1329 24.6897 23.7139 24.2018 24.2018C23.7139 24.6897 23.1329 25.0745 22.4934 25.3334C21.7194 25.6181 20.9044 25.7757 20.08 25.8C19.0267 25.8 18.7467 25.8 16 25.8C13.2534 25.8 12.9734 25.8 11.92 25.8C11.0957 25.7757 10.2807 25.6181 9.50669 25.3334C8.84549 25.0876 8.24839 24.6957 7.76002 24.1867C7.27691 23.7084 6.90381 23.1305 6.66669 22.4934C6.38076 21.7202 6.2275 20.9043 6.21335 20.08C6.21335 19.0267 6.21335 18.7467 6.21335 16C6.21335 13.2534 6.21335 12.9734 6.21335 11.92C6.2275 11.0958 6.38076 10.2799 6.66669 9.50669C6.9124 8.84549 7.30439 8.24839 7.81335 7.76002C8.2938 7.27952 8.87104 6.90681 9.50669 6.66669C10.2807 6.38189 11.0957 6.2243 11.92 6.20002V6.20002C12.9734 6.20002 13.2534 6.20002 16 6.20002C18.7467 6.20002 19.0267 6.20002 20.08 6.20002C20.9044 6.2243 21.7194 6.38189 22.4934 6.66669C23.1546 6.9124 23.7517 7.30439 24.24 7.81335C24.7231 8.29169 25.0962 8.86953 25.3334 9.50669C25.6181 10.2807 25.7757 11.0957 25.8 11.92C25.8 12.9734 25.8 13.2534 25.8 16C25.8 18.7467 25.8934 19.0267 25.8534 20.08V20.0934ZM23.72 10.1734C23.5613 9.74267 23.311 9.35154 22.9864 9.02697C22.6618 8.7024 22.2707 8.4521 21.84 8.29335C21.2486 8.08837 20.6258 7.98907 20 8.00002C18.96 8.00002 18.6667 8.00002 16 8.00002C13.3334 8.00002 13.04 8.00002 12 8.00002C11.371 8.00617 10.7481 8.12353 10.16 8.34669C9.73593 8.49823 9.34894 8.7383 9.0248 9.05096C8.70065 9.36361 8.44677 9.74167 8.28002 10.16C8.08639 10.7538 7.99179 11.3755 8.00002 12C8.00002 13.04 8.00002 13.3334 8.00002 16C8.00002 18.6667 8.00002 18.96 8.00002 20C8.01324 20.6283 8.13038 21.25 8.34669 21.84C8.50544 22.2707 8.75573 22.6618 9.08031 22.9864C9.40488 23.311 9.796 23.5613 10.2267 23.72C10.7956 23.9292 11.3942 24.0463 12 24.0667V24.0667C13.04 24.0667 13.3334 24.0667 16 24.0667C18.6667 24.0667 18.96 24.0667 20 24.0667C20.629 24.0605 21.2519 23.9432 21.84 23.72C22.2707 23.5613 22.6618 23.311 22.9864 22.9864C23.311 22.6618 23.5613 22.2707 23.72 21.84C23.9432 21.2519 24.0605 20.629 24.0667 20C24.0667 18.96 24.0667 18.6667 24.0667 16C24.0667 13.3334 24.0667 13.04 24.0667 12C24.0671 11.3704 23.9495 10.7463 23.72 10.16V10.1734ZM16 21.0934C15.3318 21.0934 14.6701 20.9615 14.0529 20.7054C13.4357 20.4493 12.8751 20.0739 12.4032 19.6007C11.9313 19.1276 11.5574 18.566 11.3029 17.9481C11.0484 17.3303 10.9183 16.6683 10.92 16V16C10.92 14.9921 11.2191 14.0068 11.7793 13.1689C12.3396 12.3311 13.1358 11.6782 14.0673 11.2931C14.9988 10.908 16.0236 10.8079 17.0119 11.0056C18.0003 11.2032 18.9078 11.6896 19.6196 12.4032C20.3314 13.1169 20.8154 14.0257 21.0104 15.0146C21.2055 16.0034 21.1027 17.028 20.7151 17.9584C20.3276 18.8889 19.6727 19.6834 18.8333 20.2415C17.994 20.7995 17.008 21.096 16 21.0934V21.0934ZM21.3334 11.9067C21.0386 11.8755 20.7658 11.7363 20.5676 11.516C20.3694 11.2956 20.2597 11.0097 20.2597 10.7134C20.2597 10.417 20.3694 10.1311 20.5676 9.91073C20.7658 9.69039 21.0386 9.55122 21.3334 9.52002V9.52002C21.6281 9.55122 21.9009 9.69039 22.0991 9.91073C22.2974 10.1311 22.407 10.417 22.407 10.7134C22.407 11.0097 22.2974 11.2956 22.0991 11.516C21.9009 11.7363 21.6281 11.8755 21.3334 11.9067Z" fill="#0F2137"/>
</svg>
