<svg width="32" height="32" viewBox="0 0 32 32" fill="none" xmlns="http://www.w3.org/2000/svg">
<path d="M27.2933 2.66669H4.70664C4.45275 2.66316 4.20064 2.70969 3.96473 2.8036C3.72882 2.89752 3.51371 3.03698 3.33171 3.21404C3.1497 3.39109 3.00435 3.60227 2.90397 3.8355C2.80358 4.06874 2.75012 4.31946 2.74664 4.57336V27.4267C2.75012 27.6806 2.80358 27.9313 2.90397 28.1645C3.00435 28.3978 3.1497 28.6089 3.33171 28.786C3.51371 28.9631 3.72882 29.1025 3.96473 29.1964C4.20064 29.2904 4.45275 29.3369 4.70664 29.3334H27.2933C27.5472 29.3369 27.7993 29.2904 28.0352 29.1964C28.2711 29.1025 28.4862 28.9631 28.6682 28.786C28.8503 28.6089 28.9956 28.3978 29.096 28.1645C29.1964 27.9313 29.2498 27.6806 29.2533 27.4267V4.57336C29.2498 4.31946 29.1964 4.06874 29.096 3.8355C28.9956 3.60227 28.8503 3.39109 28.6682 3.21404C28.4862 3.03698 28.2711 2.89752 28.0352 2.8036C27.7993 2.70969 27.5472 2.66316 27.2933 2.66669ZM10.7866 24.9867H6.78664V12.9867H10.7866V24.9867ZM8.78664 11.3067C8.23499 11.3067 7.70594 11.0875 7.31586 10.6975C6.92579 10.3074 6.70664 9.77834 6.70664 9.22669C6.70664 8.67504 6.92579 8.14598 7.31586 7.75591C7.70594 7.36583 8.23499 7.14669 8.78664 7.14669C9.07957 7.11347 9.37621 7.1425 9.65714 7.23187C9.93808 7.32124 10.197 7.46894 10.4169 7.66531C10.6367 7.86167 10.8127 8.10226 10.9331 8.37133C11.0536 8.6404 11.1159 8.93188 11.1159 9.22669C11.1159 9.52149 11.0536 9.81298 10.9331 10.082C10.8127 10.3511 10.6367 10.5917 10.4169 10.7881C10.197 10.9844 9.93808 11.1321 9.65714 11.2215C9.37621 11.3109 9.07957 11.3399 8.78664 11.3067ZM25.2133 24.9867H21.2133V18.5467C21.2133 16.9334 20.64 15.88 19.1866 15.88C18.7369 15.8833 18.2989 16.0244 17.9318 16.2843C17.5646 16.5441 17.286 16.9103 17.1333 17.3334C17.029 17.6467 16.9838 17.9768 17 18.3067V24.9734H13C13 24.9734 13 14.0667 13 12.9734H17V14.6667C17.3634 14.0362 17.8919 13.5167 18.5286 13.1643C19.1653 12.8119 19.8861 12.6398 20.6133 12.6667C23.28 12.6667 25.2133 14.3867 25.2133 18.08V24.9867Z" fill="#0F2137"/>
</svg>
